PathFileType	4	(X/Y/Z)	C:/Users/beibeiliu/ov580/test_trc/User1\sequence.38_training_dense_right.trc
DataRate	CameraRate	NumFrames	NumMarkers	Units	OrigDataRate	OrigDataStartFrame	OrigNumFrames
120	120	10	19	mm	120	188	500
Frame#	Time	ThumbCMC			ThumbMCP			ThumbIP			ThumbTip			IndexMCP			IndexPIP			IndexTip			MiddleMCP			MiddlePIP			MiddleTip			RingMCP			RingPIP			RingTip			PinkyMCP			PinkyPIP			PinkyTip			BackHand1			BackHand2			BackHand3	
		X0	Y0	Z0	X1	Y1	Z1	X2	Y2	Z2	X3	Y3	Z3	X4	Y4	Z4	X5	Y5	Z5	X6	Y6	Z6	X7	Y7	Z7	X8	Y8	Z8	X9	Y9	Z9	X10	Y10	Z10	X11	Y11	Z11	X12	Y12	Z12	X13	Y13	Z13	X14	Y14	Z14	X15	Y15	Z15	X16	Y16	Z16	X17	Y17	Z17	X18	Y18	Z18	
187	1.55833	161.913	-52.728	63.1451	148.591	-74.8082	37.9054	136.836	-86.9226	17.3081	127.05	-100.928	-1.18338	203.356	-41.4575	-10.9712	205.748	-43.9348	-44.0333	215.084	-56.1997	-65.236	234.426	-43.7474	-7.19548	244.756	-46.1942	-40.1738	255.815	-59.9181	-66.8839	253.908	-52.69	6.41119	265.277	-52.5153	-16.665	277.742	-59.895	-43.8695	266.816	-75.8926	31.5838	282.383	-76.5505	18.6748	299.625	-69.0548	4.34939	235.615	-50.0349	58.0723	227.923	-45.0017	87.2038	200.345	-34.4137	58.4896	
188	1.56667	163.839	-51.3612	62.7766	145.846	-72.1707	38.2562	141.231	-83.7586	11.0832	131.905	-97.8822	-5.71967	202.38	-36.8139	-13.8003	208.227	-44.4632	-43.1887	213.944	-58.3354	-64.7878	235.997	-38.9436	-9.75543	248.667	-45.2086	-34.5786	255.321	-60.3802	-67.7151	252.793	-49.8026	7.68038	268.962	-50.3316	-16.1591	279.381	-59.4343	-42.6194	262.311	-72.2592	30.5682	280.38	-72.5188	15.7865	299.201	-66.5127	0.797522	234.579	-49.9322	59.8479	227.6	-43.5399	86.9859	203.854	-32.8275	64.8506	
189	1.575	161.345	-49.8988	58.7042	148.675	-70.3663	32.8175	142.078	-82.0683	6.40472	139.002	-95.5824	-11.0776	202.419	-35.5116	-10.7151	205.702	-42.7397	-43.7351	207.671	-59.6702	-63.7699	236.808	-36.5381	-8.855	245.838	-41.816	-40.9296	251.671	-56.9132	-66.1523	255.475	-46.9975	5.70884	267.558	-47.361	-19.1289	278.647	-59.334	-41.5275	263.871	-73.0099	34.1549	280.14	-71.5123	14.0062	296.825	-68.0771	1.27423	236.727	-47.6926	59.9169	226.695	-43.9204	90.253	200.617	-31.2538	63.2651	
190	1.58333	162.8	-49.6602	62.9937	151.626	-69.216	32.1877	145.741	-79.95	8.27119	142.656	-93.0379	-15.0383	202.015	-32.9755	-13.1575	205.547	-42.9369	-42.2306	206.65	-65.1907	-63.3612	236.448	-35.6448	-5.51285	247.89	-42.7386	-39.6337	251.928	-60.8473	-67.1614	256.013	-45.5263	5.32251	268.129	-46.3483	-18.7688	277.361	-58.3165	-46.3993	261.469	-68.9494	31.6576	280.337	-70.018	15.945	298.248	-68.1507	1.19901	237.922	-47.5351	57.7606	226.671	-44.8287	92.9637	200.231	-29.3005	63.791	
191	1.59167	166.305	-48.8332	58.2587	154.531	-68.319	35.1442	147.126	-77.9489	3.2825	142.949	-90.4814	-13.2616	206.511	-33.9479	-15.2951	206.975	-44.3766	-41.3577	204.367	-65.7634	-58.7876	240.094	-34.9491	-9.96709	247.396	-41.3276	-37.4347	247.622	-60.0069	-66.5545	256.835	-45.5713	10.2665	267.819	-45.4703	-19.3303	273.062	-56.9439	-45.8468	266.885	-69.6528	32.8521	283.697	-71.8004	18.0929	299.324	-66.9053	-3.22026	235.323	-43.3136	58.8699	225.849	-44.9064	91.4525	205.18	-30.9533	62.4027	
192	1.6	165.196	-47.7833	59.3847	150.998	-67.5097	31.694	152.767	-75.3305	3.88981	146.747	-88.5508	-15.1687	202.315	-31.3428	-13.1521	208.609	-44.7916	-38.3932	202.681	-72.8887	-57.2849	239.786	-33.9038	-8.51141	244.214	-41.6105	-39.6657	244.029	-60.6899	-67.0624	256.725	-43.0363	5.7777	270.202	-46.359	-17.9887	270.925	-57.4102	-48.3625	265.609	-66.7103	29.0147	284.255	-69.6943	16.0904	301.114	-68.7035	1.14258	236.259	-45.4955	59.3672	227.225	-44.1299	88.7671	202.251	-28.9475	67.6467	
193	1.60833	166.656	-49.6051	63.6363	154.198	-67.1181	28.9132	150.696	-76.1258	7.92199	148.969	-87.9535	-16.7099	202.749	-30.8103	-9.76804	204.778	-44.2997	-38.9584	197.568	-74.3684	-53.828	236.42	-32.8958	-9.71844	241.773	-39.5754	-37.0371	240.759	-61.2222	-64.3194	255.762	-44.1109	10.9697	266.382	-44.9466	-21.706	270.578	-58.3364	-48.6582	266.43	-69.7986	34.2411	286.04	-70.1949	15.7263	302.692	-69.1126	-1.66175	240.439	-43.9854	58.2434	230.818	-45.8755	94.1685	203.041	-29.6655	68.7907	
194	1.61667	164.185	-49.0995	61.9284	153.168	-67.5201	30.3643	151.819	-75.6547	3.77773	152.638	-88.2936	-15.6669	205.482	-32.1056	-13.5524	203.966	-47.3582	-40.3485	201.303	-76.9061	-48.9956	238.928	-32.8947	-9.84708	244.732	-42.7352	-38.7525	241.68	-63.1914	-64.4561	256.347	-44.074	8.50375	268.657	-46.9684	-18.8216	272.543	-60.1418	-43.7538	266.529	-65.9365	28.7782	282.833	-70.6469	19.1951	297.522	-66.1549	-1.27265	237.277	-44.5681	57.5658	229.77	-44.1989	92.436	203.118	-27.9404	65.8659	
195	1.625	167.903	-49.3585	60.1894	157.787	-68.0886	29.2815	155.793	-77.2084	6.15516	159.251	-88.7366	-16.198	204.087	-33.2684	-13.8435	202.215	-48.9576	-40.4126	193.52	-81.3465	-48.0001	235.096	-31.448	-9.88413	241.549	-41.8007	-39.8883	243.149	-64.4708	-62.0293	258.237	-45.0072	7.89117	268.564	-46.9161	-18.4369	271.128	-60.6709	-45.3303	268.203	-66.7692	30.6699	284.048	-71.1476	19.6678	300.176	-65.3962	-3.81717	233.581	-44.6347	60.2961	229.017	-46.3098	92.1287	203.734	-30.6223	67.6886	
196	1.63333	166.808	-50.7933	61.7926	158.626	-68.6872	29.3708	158.41	-77.7971	5.57537	157.81	-90.1796	-17.5787	202.779	-32.7094	-14.7034	201.84	-51.4752	-38.6284	192.887	-82.672	-43.7407	236.298	-32.5537	-10.4403	242.023	-42.4247	-40.3163	239.442	-67.8289	-65.6386	255.074	-42.2127	8.31008	269.877	-47.0735	-19.2098	271.935	-61.8577	-44.2179	264.854	-65.7495	30.2994	286.015	-70.5983	15.7371	302.163	-67.1164	2.8128	240.061	-43.7983	59.9286	228.972	-47.7089	95.4718	204.485	-30.9648	67.0468	
